# Blender v2.81 (sub 16) OBJ File: ''
# www.blender.org
mtllib selectedObjCursor.mtl
o Cylinder
v -0.000000 -1.000000 0.000000
v -0.000000 1.602022 -0.589872
v 0.000000 -1.000000 0.000000
v 0.510844 1.602022 -0.294936
v 0.000000 -1.000000 0.000000
v 0.510844 1.602022 0.294936
v -0.000000 -1.000000 0.000000
v -0.000000 1.602022 0.589872
v 0.000000 -1.000000 0.000000
v -0.510844 1.602022 0.294936
v 0.000000 -1.000000 0.000000
v -0.510844 1.602022 -0.294936
v 0.672748 1.507049 -0.388411
v -0.000000 1.507049 -0.776823
v 0.672748 1.507049 0.388412
v -0.000000 1.507049 0.776823
v -0.672748 1.507049 0.388411
v -0.672748 1.507049 -0.388411
vt 0.833333 0.500000
vt 1.000000 1.000000
vt 0.833333 1.000000
vt 0.833333 0.500000
vt 0.666667 0.500000
vt 0.666667 1.000000
vt 0.666667 0.500000
vt 0.500000 0.500000
vt 0.500000 1.000000
vt 0.500000 0.500000
vt 0.333333 0.500000
vt 0.333333 1.000000
vt 0.333333 0.500000
vt 0.407826 0.341121
vt 0.250000 0.432241
vt 0.092174 0.341121
vt 0.092174 0.158879
vt 0.250000 0.067759
vt 0.407826 0.158879
vt 0.166667 0.500000
vt 0.166667 1.000000
vt 0.166667 0.500000
vt -0.000000 0.500000
vt -0.000000 1.000000
vt -0.000000 0.500000
vt 0.750000 0.490000
vt 0.957846 0.370000
vt 0.957846 0.130000
vt 0.750000 0.010000
vt 0.542154 0.130000
vt 0.542154 0.370000
vt 0.457846 0.370000
vt 0.250000 0.490000
vt 0.457846 0.130000
vt 0.250000 0.010000
vt 0.042154 0.130000
vt 0.042154 0.370000
vn 0.4829 -0.2592 -0.8364
vn 0.9658 -0.2592 0.0000
vn 0.4829 -0.2592 0.8364
vn -0.4829 -0.2592 0.8364
vn 0.0000 1.0000 0.0000
vn -0.9658 -0.2592 0.0000
vn -0.4829 -0.2592 -0.8364
vn 0.0000 0.0000 1.0000
vn 0.2530 0.8625 -0.4382
vn 0.5060 0.8625 -0.0000
vn 0.2530 0.8625 0.4382
vn -0.2530 0.8625 0.4382
vn -0.5060 0.8625 0.0000
vn -0.2530 0.8625 -0.4382
g Cylinder_Cylinder_SelectedCursorMat
usemtl SelectedCursorMat
s off
f 1/1/1 14/2/1 13/3/1 3/4/1
f 3/5/2 13/3/2 15/6/2 5/7/2
f 5/8/3 15/6/3 16/9/3 7/10/3
f 7/11/4 16/9/4 17/12/4 9/13/4
f 4/14/5 2/15/5 12/16/5 10/17/5 8/18/5 6/19/5
f 9/20/6 17/12/6 18/21/6 11/22/6
f 11/23/7 18/21/7 14/24/7 1/25/7
f 1/26/8 3/27/8 5/28/8 7/29/8 9/30/8 11/31/8
f 2/15/9 4/14/9 13/32/9 14/33/9
f 4/14/10 6/19/10 15/34/10 13/32/10
f 6/19/11 8/18/11 16/35/11 15/34/11
f 8/18/12 10/17/12 17/36/12 16/35/12
f 10/17/13 12/16/13 18/37/13 17/36/13
f 12/16/14 2/15/14 14/33/14 18/37/14
