# Blender v2.81 (sub 16) OBJ File: 'selectedObjCircle.blend'
# www.blender.org
mtllib selectedObjCircle.mtl
o Cylinder.001
v 0.000000 -0.063393 -1.000000
v 0.000000 0.063393 -1.000000
v 0.195090 -0.063393 -0.980785
v 0.195090 0.063393 -0.980785
v 0.382683 -0.063393 -0.923880
v 0.382683 0.063393 -0.923880
v 0.555570 -0.063393 -0.831470
v 0.555570 0.063393 -0.831470
v 0.707107 -0.063393 -0.707107
v 0.707107 0.063393 -0.707107
v 0.831470 -0.063393 -0.555570
v 0.831470 0.063393 -0.555570
v 0.923880 -0.063393 -0.382683
v 0.923880 0.063393 -0.382683
v 0.980785 -0.063393 -0.195090
v 0.980785 0.063393 -0.195090
v 1.000000 -0.063393 -0.000000
v 1.000000 0.063393 -0.000000
v 0.980785 -0.063393 0.195090
v 0.980785 0.063393 0.195090
v 0.923880 -0.063393 0.382683
v 0.923880 0.063393 0.382683
v 0.831470 -0.063393 0.555570
v 0.831470 0.063393 0.555570
v 0.707107 -0.063393 0.707107
v 0.707107 0.063393 0.707107
v 0.555570 -0.063393 0.831470
v 0.555570 0.063393 0.831470
v 0.382683 -0.063393 0.923880
v 0.382683 0.063393 0.923880
v 0.195090 -0.063393 0.980785
v 0.195090 0.063393 0.980785
v -0.000000 -0.063393 1.000000
v -0.000000 0.063393 1.000000
v -0.195091 -0.063393 0.980785
v -0.195091 0.063393 0.980785
v -0.382684 -0.063393 0.923879
v -0.382684 0.063393 0.923879
v -0.555571 -0.063393 0.831469
v -0.555571 0.063393 0.831469
v -0.707107 -0.063393 0.707106
v -0.707107 0.063393 0.707106
v -0.831470 -0.063393 0.555570
v -0.831470 0.063393 0.555570
v -0.923880 -0.063393 0.382683
v -0.923880 0.063393 0.382683
v -0.980785 -0.063393 0.195089
v -0.980785 0.063393 0.195089
v -1.000000 -0.063393 -0.000001
v -1.000000 0.063393 -0.000001
v -0.980785 -0.063393 -0.195091
v -0.980785 0.063393 -0.195091
v -0.923879 -0.063393 -0.382684
v -0.923879 0.063393 -0.382684
v -0.831469 -0.063393 -0.555571
v -0.831469 0.063393 -0.555571
v -0.707106 -0.063393 -0.707108
v -0.707106 0.063393 -0.707108
v -0.555569 -0.063393 -0.831470
v -0.555569 0.063393 -0.831470
v -0.382682 -0.063393 -0.923880
v -0.382682 0.063393 -0.923880
v -0.195089 -0.063393 -0.980786
v -0.195089 0.063393 -0.980786
v 0.645648 0.063393 0.431408
v 0.645648 -0.063393 0.431408
v 0.000000 0.063393 -0.776515
v 0.000000 -0.063393 -0.776515
v -0.151489 0.063393 -0.761594
v -0.151489 -0.063393 -0.761594
v -0.297158 0.063393 -0.717406
v -0.297158 -0.063393 -0.717406
v -0.717406 0.063393 0.297159
v -0.717406 -0.063393 0.297159
v -0.645649 0.063393 0.431408
v -0.645649 -0.063393 0.431408
v -0.761594 0.063393 0.151490
v -0.761594 -0.063393 0.151490
v -0.549079 0.063393 0.549078
v -0.549079 -0.063393 0.549078
v -0.151491 0.063393 0.761594
v -0.151491 -0.063393 0.761594
v -0.000000 0.063393 0.776515
v -0.000000 -0.063393 0.776515
v -0.297160 0.063393 0.717406
v -0.297160 -0.063393 0.717406
v 0.761594 0.063393 -0.151491
v 0.761594 -0.063393 -0.151491
v 0.431408 0.063393 -0.645648
v 0.431408 -0.063393 -0.645648
v 0.776515 0.063393 -0.000000
v 0.776515 -0.063393 -0.000000
v 0.717406 0.063393 -0.297159
v 0.717406 -0.063393 -0.297159
v 0.151490 0.063393 0.761594
v 0.151490 -0.063393 0.761594
v -0.549078 0.063393 -0.549079
v -0.549078 -0.063393 -0.549079
v -0.431408 0.063393 -0.645649
v -0.431408 -0.063393 -0.645649
v -0.645648 0.063393 -0.431409
v -0.645648 -0.063393 -0.431409
v 0.761594 0.063393 0.151490
v 0.761594 -0.063393 0.151490
v 0.431408 0.063393 0.645648
v 0.431408 -0.063393 0.645648
v 0.549079 0.063393 0.549079
v 0.549079 -0.063393 0.549079
v 0.717406 0.063393 0.297159
v 0.717406 -0.063393 0.297159
v -0.776515 0.063393 -0.000001
v -0.776515 -0.063393 -0.000001
v -0.431409 0.063393 0.645648
v -0.431409 -0.063393 0.645648
v -0.761594 0.063393 -0.151491
v -0.761594 -0.063393 -0.151491
v 0.549079 0.063393 -0.549079
v 0.549079 -0.063393 -0.549079
v 0.297159 0.063393 0.717406
v 0.297159 -0.063393 0.717406
v 0.645648 0.063393 -0.431408
v 0.645648 -0.063393 -0.431408
v -0.717406 0.063393 -0.297160
v -0.717406 -0.063393 -0.297160
v 0.297159 0.063393 -0.717406
v 0.297159 -0.063393 -0.717406
v 0.151490 0.063393 -0.761594
v 0.151490 -0.063393 -0.761594
vt 1.000000 0.500000
vt 1.000000 1.000000
vt 0.968750 1.000000
vt 0.968750 0.500000
vt 0.937500 1.000000
vt 0.937500 0.500000
vt 0.906250 1.000000
vt 0.906250 0.500000
vt 0.875000 1.000000
vt 0.875000 0.500000
vt 0.843750 1.000000
vt 0.843750 0.500000
vt 0.812500 1.000000
vt 0.812500 0.500000
vt 0.781250 1.000000
vt 0.781250 0.500000
vt 0.750000 1.000000
vt 0.750000 0.500000
vt 0.718750 1.000000
vt 0.718750 0.500000
vt 0.687500 1.000000
vt 0.687500 0.500000
vt 0.656250 1.000000
vt 0.656250 0.500000
vt 0.625000 1.000000
vt 0.625000 0.500000
vt 0.593750 1.000000
vt 0.593750 0.500000
vt 0.562500 1.000000
vt 0.562500 0.500000
vt 0.531250 1.000000
vt 0.531250 0.500000
vt 0.500000 1.000000
vt 0.500000 0.500000
vt 0.468750 1.000000
vt 0.468750 0.500000
vt 0.437500 1.000000
vt 0.437500 0.500000
vt 0.406250 1.000000
vt 0.406250 0.500000
vt 0.375000 1.000000
vt 0.375000 0.500000
vt 0.343750 1.000000
vt 0.343750 0.500000
vt 0.312500 1.000000
vt 0.312500 0.500000
vt 0.281250 1.000000
vt 0.281250 0.500000
vt 0.250000 1.000000
vt 0.250000 0.500000
vt 0.218750 1.000000
vt 0.218750 0.500000
vt 0.187500 1.000000
vt 0.187500 0.500000
vt 0.156250 1.000000
vt 0.156250 0.500000
vt 0.125000 1.000000
vt 0.125000 0.500000
vt 0.093750 1.000000
vt 0.093750 0.500000
vt 0.062500 1.000000
vt 0.062500 0.500000
vt 0.296822 0.485388
vt 0.250000 0.490000
vt 0.203179 0.485389
vt 0.158156 0.471731
vt 0.116663 0.449553
vt 0.080295 0.419706
vt 0.050447 0.383337
vt 0.028269 0.341844
vt 0.014612 0.296822
vt 0.010000 0.250000
vt 0.063636 0.250000
vt 0.067217 0.286358
vt 0.077823 0.321319
vt 0.095045 0.353538
vt 0.118221 0.381779
vt 0.146462 0.404956
vt 0.178682 0.422177
vt 0.213643 0.432782
vt 0.250000 0.436363
vt 0.286358 0.432783
vt 0.321318 0.422177
vt 0.353538 0.404956
vt 0.381779 0.381779
vt 0.404956 0.353538
vt 0.422177 0.321318
vt 0.432783 0.286358
vt 0.436364 0.250000
vt 0.490000 0.250000
vt 0.485388 0.296822
vt 0.471731 0.341844
vt 0.449553 0.383337
vt 0.419706 0.419706
vt 0.383337 0.449553
vt 0.341844 0.471731
vt 0.031250 1.000000
vt 0.031250 0.500000
vt 0.000000 1.000000
vt 0.000000 0.500000
vt 0.750000 0.490000
vt 0.796822 0.485388
vt 0.841844 0.471731
vt 0.883337 0.449553
vt 0.919706 0.419706
vt 0.949553 0.383337
vt 0.971731 0.341844
vt 0.985388 0.296822
vt 0.990000 0.250000
vt 0.936364 0.250000
vt 0.932782 0.286358
vt 0.922177 0.321318
vt 0.904956 0.353538
vt 0.881779 0.381779
vt 0.853538 0.404956
vt 0.821318 0.422177
vt 0.786358 0.432783
vt 0.750000 0.436364
vt 0.713642 0.432782
vt 0.678682 0.422177
vt 0.646462 0.404956
vt 0.618221 0.381779
vt 0.595045 0.353538
vt 0.577823 0.321319
vt 0.567217 0.286358
vt 0.563636 0.250000
vt 0.510000 0.250000
vt 0.514612 0.296822
vt 0.528269 0.341844
vt 0.550447 0.383337
vt 0.580295 0.419706
vt 0.616663 0.449553
vt 0.658156 0.471731
vt 0.703179 0.485389
vt 0.718750 0.656624
vt 0.718750 0.843376
vt 0.750000 0.843376
vt 0.750000 0.656624
vt 0.625000 0.656624
vt 0.625000 0.843376
vt 0.656250 0.843376
vt 0.656250 0.656624
vt 0.687500 0.843376
vt 0.687500 0.656624
vt 0.218750 0.656624
vt 0.218750 0.843376
vt 0.250000 0.843376
vt 0.250000 0.656624
vt 0.781250 0.656624
vt 0.781250 0.843376
vt 0.812500 0.843376
vt 0.812500 0.656624
vt 0.843750 0.656624
vt 0.843750 0.843376
vt 0.875000 0.843376
vt 0.875000 0.656624
vt 0.000000 0.656624
vt 0.000000 0.843376
vt 0.031250 0.843376
vt 0.031250 0.656624
vt 0.468750 0.656624
vt 0.468750 0.843376
vt 0.500000 0.843376
vt 0.500000 0.656624
vt 0.156250 0.656624
vt 0.156250 0.843376
vt 0.187500 0.843376
vt 0.187500 0.656624
vt 0.531250 0.843376
vt 0.531250 0.656624
vt 0.062500 0.843376
vt 0.062500 0.656624
vt 0.906250 0.843376
vt 0.906250 0.656624
vt 0.406250 0.656624
vt 0.406250 0.843376
vt 0.437500 0.843376
vt 0.437500 0.656624
vt 0.432783 0.213642
vt 0.422177 0.178682
vt 0.404956 0.146462
vt 0.381779 0.118221
vt 0.353538 0.095045
vt 0.321318 0.077822
vt 0.286358 0.067217
vt 0.250000 0.063636
vt 0.213642 0.067218
vt 0.178682 0.077823
vt 0.146462 0.095044
vt 0.118221 0.118221
vt 0.095044 0.146462
vt 0.077823 0.178682
vt 0.067217 0.213643
vt 0.014611 0.203179
vt 0.028269 0.158156
vt 0.050447 0.116663
vt 0.080294 0.080294
vt 0.116663 0.050447
vt 0.158156 0.028269
vt 0.203178 0.014612
vt 0.250000 0.010000
vt 0.296822 0.014612
vt 0.341844 0.028269
vt 0.383337 0.050447
vt 0.419706 0.080294
vt 0.449553 0.116663
vt 0.471731 0.158156
vt 0.485388 0.203178
vt 0.937500 0.843376
vt 0.937500 0.656624
vt 0.593750 0.656624
vt 0.593750 0.843376
vt 0.093750 0.656624
vt 0.093750 0.843376
vt 0.125000 0.843376
vt 0.125000 0.656624
vt 0.562500 0.656624
vt 0.562500 0.843376
vt 0.375000 0.656624
vt 0.375000 0.843376
vt 0.312500 0.656624
vt 0.312500 0.843376
vt 0.343750 0.843376
vt 0.343750 0.656624
vt 0.968750 0.656624
vt 0.968750 0.843376
vt 1.000000 0.843376
vt 1.000000 0.656624
vt 0.281250 0.843376
vt 0.281250 0.656624
vt 0.567217 0.213642
vt 0.577823 0.178682
vt 0.595044 0.146462
vt 0.618221 0.118221
vt 0.646462 0.095044
vt 0.678682 0.077823
vt 0.713642 0.067218
vt 0.750000 0.063637
vt 0.786358 0.067217
vt 0.821318 0.077822
vt 0.853538 0.095045
vt 0.881779 0.118221
vt 0.904956 0.146462
vt 0.922177 0.178682
vt 0.932782 0.213642
vt 0.985388 0.203178
vt 0.971731 0.158156
vt 0.949553 0.116663
vt 0.919706 0.080294
vt 0.883337 0.050447
vt 0.841844 0.028269
vt 0.796822 0.014612
vt 0.750000 0.010000
vt 0.703178 0.014612
vt 0.658156 0.028269
vt 0.616663 0.050447
vt 0.580294 0.080294
vt 0.550447 0.116663
vt 0.528269 0.158156
vt 0.514611 0.203179
vn 0.0000 0.0000 -1.0000
vn 0.1951 0.0000 -0.9808
vn 0.3827 0.0000 -0.9239
vn 0.5556 0.0000 -0.8315
vn 0.7071 0.0000 -0.7071
vn 0.8315 0.0000 -0.5556
vn 0.9239 0.0000 -0.3827
vn 0.9808 0.0000 -0.1951
vn 1.0000 0.0000 -0.0000
vn 0.9808 0.0000 0.1951
vn 0.9239 0.0000 0.3827
vn 0.8315 0.0000 0.5556
vn 0.7071 0.0000 0.7071
vn 0.5556 0.0000 0.8315
vn 0.3827 0.0000 0.9239
vn 0.1951 0.0000 0.9808
vn -0.0000 0.0000 1.0000
vn -0.1951 0.0000 0.9808
vn -0.3827 0.0000 0.9239
vn -0.5556 0.0000 0.8315
vn -0.7071 0.0000 0.7071
vn -0.8315 0.0000 0.5556
vn -0.9239 0.0000 0.3827
vn -0.9808 0.0000 0.1951
vn -1.0000 0.0000 -0.0000
vn -0.9808 0.0000 -0.1951
vn -0.9239 0.0000 -0.3827
vn -0.8315 0.0000 -0.5556
vn -0.7071 0.0000 -0.7071
vn -0.5556 0.0000 -0.8315
vn -0.3827 0.0000 -0.9239
vn -0.0000 1.0000 0.0000
vn -0.1951 0.0000 -0.9808
vn -0.0000 -1.0000 0.0000
g Cylinder.001_Cylinder.001_SelectedObjCircle
usemtl SelectedObjCircle
s 1
f 1/1/1 2/2/1 4/3/2 3/4/2
f 3/4/2 4/3/2 6/5/3 5/6/3
f 5/6/3 6/5/3 8/7/4 7/8/4
f 7/8/4 8/7/4 10/9/5 9/10/5
f 9/10/5 10/9/5 12/11/6 11/12/6
f 11/12/6 12/11/6 14/13/7 13/14/7
f 13/14/7 14/13/7 16/15/8 15/16/8
f 15/16/8 16/15/8 18/17/9 17/18/9
f 17/18/9 18/17/9 20/19/10 19/20/10
f 19/20/10 20/19/10 22/21/11 21/22/11
f 21/22/11 22/21/11 24/23/12 23/24/12
f 23/24/12 24/23/12 26/25/13 25/26/13
f 25/26/13 26/25/13 28/27/14 27/28/14
f 27/28/14 28/27/14 30/29/15 29/30/15
f 29/30/15 30/29/15 32/31/16 31/32/16
f 31/32/16 32/31/16 34/33/17 33/34/17
f 33/34/17 34/33/17 36/35/18 35/36/18
f 35/36/18 36/35/18 38/37/19 37/38/19
f 37/38/19 38/37/19 40/39/20 39/40/20
f 39/40/20 40/39/20 42/41/21 41/42/21
f 41/42/21 42/41/21 44/43/22 43/44/22
f 43/44/22 44/43/22 46/45/23 45/46/23
f 45/46/23 46/45/23 48/47/24 47/48/24
f 47/48/24 48/47/24 50/49/25 49/50/25
f 49/50/25 50/49/25 52/51/26 51/52/26
f 51/52/26 52/51/26 54/53/27 53/54/27
f 53/54/27 54/53/27 56/55/28 55/56/28
f 55/56/28 56/55/28 58/57/29 57/58/29
f 57/58/29 58/57/29 60/59/30 59/60/30
f 59/60/30 60/59/30 62/61/31 61/62/31
f 4/63/32 2/64/32 64/65/32 62/66/32 60/67/32 58/68/32 56/69/32 54/70/32 52/71/32 50/72/32 111/73/32 115/74/32 123/75/32 101/76/32 97/77/32 99/78/32 71/79/32 69/80/32 67/81/32 127/82/32 125/83/32 89/84/32 117/85/32 121/86/32 93/87/32 87/88/32 91/89/32 18/90/32 16/91/32 14/92/32 12/93/32 10/94/32 8/95/32 6/96/32
f 61/62/31 62/61/31 64/97/33 63/98/33
f 63/98/33 64/97/33 2/99/1 1/100/1
f 1/101/34 3/102/34 5/103/34 7/104/34 9/105/34 11/106/34 13/107/34 15/108/34 17/109/34 92/110/34 88/111/34 94/112/34 122/113/34 118/114/34 90/115/34 126/116/34 128/117/34 68/118/34 70/119/34 72/120/34 100/121/34 98/122/34 102/123/34 124/124/34 116/125/34 112/126/34 49/127/34 51/128/34 53/129/34 55/130/34 57/131/34 59/132/34 61/133/34 63/134/34
f 104/135/26 103/136/26 91/137/25 92/138/25
f 108/139/29 107/140/29 65/141/28 66/142/28
f 66/142/28 65/141/28 109/143/27 110/144/27
f 116/145/10 115/146/10 111/147/9 112/148/9
f 88/149/24 87/150/24 93/151/23 94/152/23
f 92/138/25 91/137/25 87/150/24 88/149/24
f 122/153/22 121/154/22 117/155/21 118/156/21
f 68/157/17 67/158/17 69/159/16 70/160/16
f 82/161/2 81/162/2 83/163/1 84/164/1
f 102/165/12 101/166/12 123/167/11 124/168/11
f 84/164/1 83/163/1 95/169/33 96/170/33
f 70/160/16 69/159/16 71/171/15 72/172/15
f 118/156/21 117/155/21 89/173/20 90/174/20
f 114/175/4 113/176/4 85/177/3 86/178/3
f 18/90/32 91/89/32 103/179/32 109/180/32 65/181/32 107/182/32 105/183/32 119/184/32 95/185/32 83/186/32 81/187/32 85/188/32 113/189/32 79/190/32 75/191/32 73/192/32 77/193/32 111/73/32 50/72/32 48/194/32 46/195/32 44/196/32 42/197/32 40/198/32 38/199/32 36/200/32 34/201/32 32/202/32 30/203/32 28/204/32 26/205/32 24/206/32 22/207/32 20/208/32
f 90/174/20 89/173/20 125/209/19 126/210/19
f 106/211/30 105/212/30 107/140/29 108/139/29
f 100/213/14 99/214/14 97/215/13 98/216/13
f 124/168/11 123/167/11 115/146/10 116/145/10
f 120/217/31 119/218/31 105/212/30 106/211/30
f 80/219/5 79/220/5 113/176/4 114/175/4
f 74/221/7 73/222/7 75/223/6 76/224/6
f 128/225/18 127/226/18 67/227/17 68/228/17
f 94/152/23 93/151/23 121/154/22 122/153/22
f 112/148/9 111/147/9 77/229/8 78/230/8
f 110/144/27 109/143/27 103/136/26 104/135/26
f 86/178/3 85/177/3 81/162/2 82/161/2
f 72/172/15 71/171/15 99/214/14 100/213/14
f 126/210/19 125/209/19 127/226/18 128/225/18
f 96/170/33 95/169/33 119/218/31 120/217/31
f 78/230/8 77/229/8 73/222/7 74/221/7
f 98/216/13 97/215/13 101/166/12 102/165/12
f 49/127/34 112/126/34 78/231/34 74/232/34 76/233/34 80/234/34 114/235/34 86/236/34 82/237/34 84/238/34 96/239/34 120/240/34 106/241/34 108/242/34 66/243/34 110/244/34 104/245/34 92/110/34 17/109/34 19/246/34 21/247/34 23/248/34 25/249/34 27/250/34 29/251/34 31/252/34 33/253/34 35/254/34 37/255/34 39/256/34 41/257/34 43/258/34 45/259/34 47/260/34
f 76/224/6 75/223/6 79/220/5 80/219/5
